<svg width="17" height="17" viewBox="0 0 17 17" fill="none" xmlns="http://www.w3.org/2000/svg">
<path d="M9.76484 8.5L16.1735 0.86084C16.281 0.733887 16.1906 0.541016 16.0246 0.541016H14.0764C13.9616 0.541016 13.8518 0.592285 13.7761 0.680176L8.49043 6.98145L3.20479 0.680176C3.13154 0.592285 3.02168 0.541016 2.90449 0.541016H0.95625C0.790235 0.541016 0.699903 0.733887 0.807324 0.86084L7.21602 8.5L0.807324 16.1392C0.783261 16.1675 0.767823 16.2021 0.762844 16.2389C0.757864 16.2757 0.763552 16.3132 0.779232 16.3468C0.794912 16.3805 0.819926 16.409 0.851304 16.4288C0.882682 16.4487 0.919105 16.4592 0.95625 16.459H2.90449C3.01924 16.459 3.1291 16.4077 3.20479 16.3198L8.49043 10.0186L13.7761 16.3198C13.8493 16.4077 13.9592 16.459 14.0764 16.459H16.0246C16.1906 16.459 16.281 16.2661 16.1735 16.1392L9.76484 8.5Z" fill="white"/>
</svg>
