<svg width="43" height="44" viewBox="0 0 43 44" fill="none" xmlns="http://www.w3.org/2000/svg">
<g clip-path="url(#clip0)">
<rect x="0.868164" y="0.896484" width="42.1315" height="42.1315" rx="6.2749" fill="white"/>
<path d="M17.0462 20.6174C15.5197 20.6174 14.3145 22.0307 14.3145 23.7549C14.3145 25.4791 15.5464 26.8923 17.0462 26.8923C18.5728 26.8923 19.778 25.4791 19.778 23.7549C19.8048 22.0307 18.5728 20.6174 17.0462 20.6174ZM26.8217 20.6174C25.2951 20.6174 24.0899 22.0307 24.0899 23.7549C24.0899 25.4791 25.3219 26.8923 26.8217 26.8923C28.3483 26.8923 29.5535 25.4791 29.5535 23.7549C29.5535 22.0307 28.3483 20.6174 26.8217 20.6174Z" fill="#7289DA"/>
<path d="M39.4379 -0.896484H4.43161C1.47959 -0.896484 -0.923828 1.49515 -0.923828 4.45869V39.6053C-0.923828 42.5689 1.47959 44.9605 4.43161 44.9605H34.0563H36.626H37.3479L39.1766 46.1563L44.7933 51.0955V4.45869C44.7933 1.49515 42.3899 -0.896484 39.4379 -0.896484ZM29.354 33.0543C29.354 33.0543 28.4135 31.9365 27.6298 30.9486C31.052 29.9868 32.3582 27.8551 32.3582 27.8551C31.2872 28.557 30.2683 29.0509 29.354 29.3889C28.0478 29.9348 26.7938 30.2987 25.566 30.5067C23.0581 30.9746 20.7592 30.8446 18.7998 30.4807C17.3108 30.1947 16.0307 29.7788 14.9596 29.3629C14.3588 29.1289 13.7057 28.843 13.0526 28.479C12.9742 28.427 12.8958 28.401 12.8174 28.349C12.7652 28.323 12.7391 28.297 12.7129 28.271C12.2427 28.0111 11.9815 27.8291 11.9815 27.8291C11.9815 27.8291 13.2354 29.9088 16.5532 30.8966C15.7695 31.8845 14.8029 33.0543 14.8029 33.0543C9.02944 32.8723 6.83502 29.1029 6.83502 29.1029C6.83502 20.7322 10.5969 13.9472 10.5969 13.9472C14.3588 11.1397 17.9378 11.2177 17.9378 11.2177L18.199 11.5296C13.4967 12.8814 11.3284 14.9351 11.3284 14.9351C11.3284 14.9351 11.9031 14.6231 12.8697 14.1812C15.665 12.9594 17.8855 12.6214 18.7998 12.5435C18.9566 12.5175 19.0872 12.4915 19.244 12.4915C20.8375 12.2835 22.6401 12.2315 24.521 12.4395C27.0028 12.7254 29.6675 13.4533 32.3844 14.9351C32.3844 14.9351 30.3206 12.9854 25.8795 11.6336L26.2452 11.2177C26.2452 11.2177 29.8242 11.1397 33.5861 13.9472C33.5861 13.9472 37.3479 20.7322 37.3479 29.1029C37.3479 29.1029 35.1274 32.8723 29.354 33.0543Z" fill="#7289DA"/>
</g>
<defs>
<clipPath id="clip0">
<rect x="0.868164" y="0.896484" width="42.1315" height="42.1315" rx="6.2749" fill="white"/>
</clipPath>
</defs>
</svg>
