<svg width="43" height="43" viewBox="0 0 43 43" fill="none" xmlns="http://www.w3.org/2000/svg">
<rect width="42.1315" height="42.1315" rx="8.96414" fill="#1877F2"/>
<g clip-path="url(#clip0)">
<path d="M37.4408 17.8224C37.4408 8.4736 29.8622 0.894928 20.5134 0.894928C11.1646 0.894928 3.58594 8.4736 3.58594 17.8224C3.58594 26.2714 9.77606 33.2743 17.8685 34.5442V22.7155H13.5705V17.8224H17.8685V14.093C17.8685 9.85061 20.3956 7.50721 24.2622 7.50721C26.1142 7.50721 28.0514 7.83783 28.0514 7.83783V12.0036H25.9169C23.8141 12.0036 23.1583 13.3084 23.1583 14.6471V17.8224H27.853L27.1025 22.7155H23.1583V34.5442C31.2507 33.2743 37.4408 26.2714 37.4408 17.8224Z" fill="#1877F2"/>
<path d="M27.1024 22.7171L27.8528 17.824H23.1581V14.6487C23.1581 13.31 23.8139 12.0052 25.9167 12.0052H28.0512V7.83946C28.0512 7.83946 26.114 7.50885 24.262 7.50885C20.3954 7.50885 17.8683 9.85224 17.8683 14.0947V17.824H13.5703V22.7171H17.8683V34.5458C18.7301 34.681 19.6134 34.7515 20.5132 34.7515C21.413 34.7515 22.2963 34.681 23.1581 34.5458V22.7171H27.1024Z" fill="white"/>
</g>
<defs>
<clipPath id="clip0">
<rect width="33.8549" height="33.8549" fill="white" transform="translate(3.58594 0.896484)"/>
</clipPath>
</defs>
</svg>
