<svg width="17" height="17" viewBox="0 0 17 17" fill="none" xmlns="http://www.w3.org/2000/svg">
<path d="M7.33317 14.0001C8.81232 13.9998 10.2488 13.5046 11.414 12.5934L15.0773 16.2567L16.2557 15.0784L12.5923 11.4151C13.504 10.2498 13.9995 8.81295 13.9998 7.33341C13.9998 3.65758 11.009 0.666748 7.33317 0.666748C3.65734 0.666748 0.666504 3.65758 0.666504 7.33341C0.666504 11.0092 3.65734 14.0001 7.33317 14.0001ZM7.33317 2.33341C10.0907 2.33341 12.3332 4.57591 12.3332 7.33341C12.3332 10.0909 10.0907 12.3334 7.33317 12.3334C4.57567 12.3334 2.33317 10.0909 2.33317 7.33341C2.33317 4.57591 4.57567 2.33341 7.33317 2.33341Z" fill="#7E7E7E"/>
</svg>
