<svg width="44" height="44" viewBox="0 0 44 44" fill="none" xmlns="http://www.w3.org/2000/svg">
<rect x="0.912109" y="0.896484" width="42.1315" height="42.1315" rx="6.2749" fill="#FF0000"/>
<g clip-path="url(#clip0)">
<path d="M33.5816 16.2515C33.3025 15.1547 32.4851 14.29 31.4484 13.9947C29.5544 13.4463 21.9785 13.4463 21.9785 13.4463C21.9785 13.4463 14.4026 13.4463 12.5086 13.9736C11.4918 14.2689 10.6545 15.1547 10.3754 16.2515C9.87695 18.2553 9.87695 22.4104 9.87695 22.4104C9.87695 22.4104 9.87695 26.5867 10.3754 28.5693C10.6545 29.6661 11.4719 30.5309 12.5086 30.8262C14.4225 31.3746 21.9785 31.3746 21.9785 31.3746C21.9785 31.3746 29.5544 31.3746 31.4484 30.8473C32.4851 30.552 33.3025 29.6872 33.5816 28.5904C34.08 26.5867 34.08 22.4315 34.08 22.4315C34.08 22.4315 34.1 18.2553 33.5816 16.2515Z" fill="white"/>
<path d="M25.8654 22.4105L19.5654 18.5718V26.2493L25.8654 22.4105Z" fill="#FF0000"/>
</g>
<defs>
<clipPath id="clip0">
<rect width="24.2032" height="17.9283" fill="white" transform="translate(9.87695 13.4463)"/>
</clipPath>
</defs>
</svg>
